<svg xmlns="http://www.w3.org/2000/svg" xmlns:xlink="http://www.w3.org/1999/xlink" version="1.1" x="0px" y="0px" viewBox="0 0 90 90" enable-background="new 0 0 90 90" xml:space="preserve"><path fill="#000000" d="M13.6,86.2c0.1,0.9,10.3-2.9,13.1-3.4c3.6,0.6,5.7-1.5,6.9,0.7c0.3-1-1.2-2.7-3.6-2.4  c2.1-0.5,6.4,0.9,9.2,1.5c2.9-1.7,6.6-5.5,9.9-4.8C48,76,43.7,74,41.6,74.1c3.4-0.6,10.1,0.1,13.3-0.1c3.2-0.3,6.9-6.6,10.9-8.7  c0-1.1-5.4-2.5-6.4-2.5c4.8-2.7,9.4-5.2,10.6-7c0.6-0.9,3.5-4.8,4.1-8.7c1.2-7,0.2-8.2,3.9-14.5c-3.6,2-5.3,3.1-5.3,3.1  c2.9-3.1,3.6-7.1,3.5-8.8c-1.3-4.6-6-12.7-4.5-15c-1.2,1.2-3.4,5.6-4.5,6.5c1.4-2.5,1.4-6.6,0.8-8c-0.6-1.4-8.5-9.2-11.6-9.1  c-3.1,0.1-7.8,10.1-7.6,15.9c1.6,4.5,3.1,9.8,3.9,11.4c-1.8-1.2-4.6-5.5-5.1-8.3c0.2,2.3,0.6,7.3-1.7,13.3c-2.3,6-3.3,11.2-3.3,21  c-1.4-3.9-0.5-6-1.9-8.2c0.6,2.8-2,8-4.2,11.4c-2.2,3.4-3.5,5.7-3,11.1c-1.1-2.4-1.2-5.7-1.2-6.3c-0.5,2.2-2.3,5.3-4.6,8.7  c-2.2,3.4-2.7,6.9-2.9,9.3c-0.3-2.5-1.9-3.1-1.9-3.1c0.6,1.7-1.5,4.3-2.4,5.1C19.6,83.4,13.6,85.7,13.6,86.2z M39.4,71.1  c10-8.3,19.5-25.5,22.4-44.6c-1.9,21.8-11,36.9-21.4,46.1C28.5,83,17.8,84.9,17.3,84.8C16.1,84.7,27.5,81,39.4,71.1z"></path></svg>